<svg width="34" height="32" viewBox="0 0 34 32" fill="none" xmlns="http://www.w3.org/2000/svg">
<g filter="url(#filter0_d)">
<rect width="32" height="32" fill="#1ED760"/>
<path fill-rule="evenodd" clip-rule="evenodd" d="M16 6C21.5228 6 26 10.4772 26 16C26 21.5228 21.5228 26 16 26C10.4772 26 6 21.5228 6 16C6 10.4772 10.4772 6 16 6ZM14.5292 17.9509L13.864 17.9499C12.9576 17.9621 12.2194 18.0474 10.7635 18.388C10.4154 18.4695 10.171 18.7842 10.2395 19.1147C10.3142 19.4751 10.6296 19.6893 11.0042 19.6118C11.6053 19.4875 12.2102 19.3923 12.8204 19.3282C14.0929 19.1945 15.3587 19.2233 16.6154 19.4815C17.7268 19.7098 18.767 20.1166 19.7301 20.7193C20.0026 20.8898 20.291 20.8624 20.5057 20.6608C20.8295 20.3568 20.7584 19.8946 20.3454 19.6372C18.5646 18.5277 16.6084 17.9984 14.5292 17.9509ZM14.3259 14.722C13.6061 14.7062 12.892 14.7687 12.1816 14.8701C11.5594 14.9589 10.9458 15.093 10.344 15.2751C9.90631 15.4075 9.6707 15.8304 9.79204 16.2453C9.91488 16.6653 10.3362 16.8983 10.772 16.7719C12.4204 16.2939 14.0966 16.1812 15.7986 16.3665C17.5461 16.5567 19.2033 17.0257 20.7227 17.9326C21.1189 18.1691 21.5731 18.0584 21.8065 17.6805C22.0369 17.3076 21.9259 16.8487 21.5273 16.6058C21.2311 16.4252 20.9262 16.2561 20.6139 16.1052C18.6281 15.1454 16.5207 14.7321 14.3259 14.722ZM15.8592 11.3283C14.7941 11.2529 13.7296 11.2742 12.6671 11.3738C11.7014 11.4644 10.7468 11.6222 9.81591 11.9019C9.27173 12.0655 8.98781 12.561 9.13641 13.0694C9.28705 13.5848 9.783 13.8463 10.3303 13.6967C12.8848 12.9985 15.4606 13.0141 18.0455 13.4852C19.4217 13.736 20.7345 14.1735 21.9553 14.8746C22.574 15.2299 23.329 14.7733 23.3326 13.9352C23.3297 13.7203 23.1843 13.4524 22.8942 13.2666C22.7822 13.1949 22.6653 13.1304 22.5478 13.0678C20.457 11.955 18.1963 11.4937 15.8592 11.3283Z" fill="white"/>
</g>
<defs>
<filter id="filter0_d" x="-2" y="-1" width="36" height="36" filterUnits="userSpaceOnUse" color-interpolation-filters="sRGB">
<feFlood flood-opacity="0" result="BackgroundImageFix"/>
<feColorMatrix in="SourceAlpha" type="matrix" values="0 0 0 0 0 0 0 0 0 0 0 0 0 0 0 0 0 0 127 0"/>
<feOffset dy="1"/>
<feGaussianBlur stdDeviation="1"/>
<feColorMatrix type="matrix" values="0 0 0 0 0 0 0 0 0 0 0 0 0 0 0 0 0 0 0.2 0"/>
<feBlend mode="normal" in2="BackgroundImageFix" result="effect1_dropShadow"/>
<feBlend mode="normal" in="SourceGraphic" in2="effect1_dropShadow" result="shape"/>
</filter>
</defs>
</svg>
