<svg width="113" height="36" viewBox="0 0 113 36" fill="none" xmlns="http://www.w3.org/2000/svg">
<path fill-rule="evenodd" clip-rule="evenodd" d="M32.2001 24.3C32.3001 24.7 32.5001 25.2 32.7001 25.6C33.1001 26.9 33.3001 28.1 33.0001 29.3C32.6001 31.9 30.9001 34.1 28.4001 35.1C27.6001 35.5 26.6001 35.7 25.6001 35.7C25.4501 35.7 25.3001 35.675 25.1501 35.65C25.0001 35.625 24.8501 35.6 24.7001 35.6C23.6001 35.4 22.4001 35.1 21.2001 34.4C19.8001 33.6 18.3001 32.5 16.8001 30.8C15.2001 32.4 13.8001 33.6 12.4001 34.4C11.3001 35.1 10.1001 35.5 8.90009 35.6C8.60009 35.7 8.30009 35.7 8.00009 35.7C7.00009 35.7 6.00009 35.5 5.30009 35.3C2.80009 34.3 1.10009 32.1 0.70009 29.5C0.50009 28.2 0.60009 27 1.10009 25.7C1.20009 25.2 1.40009 24.8 1.60009 24.4C1.71843 24.1239 1.83676 23.8789 1.94896 23.6466C2.1212 23.29 2.27898 22.9634 2.40009 22.6V22.5C4.80009 17.3 7.40009 12 10.2001 6.70002L10.3001 6.50002C10.4308 6.17337 10.6041 5.84672 10.7922 5.49219L10.7922 5.49218L10.7922 5.49217C10.8921 5.30403 10.9961 5.10804 11.1001 4.90002C11.2121 4.73196 11.3242 4.55605 11.4384 4.37669C11.732 3.91572 12.0401 3.43196 12.4001 3.00002C13.6001 1.70002 15.1001 0.900024 16.9001 0.900024C18.7001 0.900024 20.3001 1.70002 21.4001 3.10002C21.8161 3.51605 22.0879 3.98015 22.3488 4.42566L22.3488 4.42571C22.4642 4.6227 22.5775 4.81606 22.7001 5.00002C22.9001 5.50002 23.2001 6.10002 23.5001 6.60002L23.6001 6.80002C26.4001 12 29.0001 17.3 31.4001 22.5C31.6001 23.1 31.9001 23.7 32.2001 24.2999L32.2001 24.3L32.2001 24.3L32.2001 24.3ZM59.8001 9.60002C59.8001 10.9 58.8001 11.9 57.5001 11.9C56.2001 11.9 55.2001 10.9 55.2001 9.60002C55.2001 8.30002 56.2001 7.30002 57.5001 7.30002C58.8001 7.40002 59.8001 8.40002 59.8001 9.60002ZM50.4001 14.2V14.8C50.4001 14.8 49.3001 13.4 47.0001 13.4C43.2001 13.4 40.2001 16.3 40.2001 20.3C40.2001 24.3 43.2001 27.2 47.0001 27.2C49.4001 27.2 50.4001 25.8 50.4001 25.8V26.4C50.4001 26.7 50.6001 26.9 50.9001 26.9H53.7001V13.7H50.9001C50.6001 13.7 50.4001 14 50.4001 14.2ZM47.6001 24C48.8001 24 49.9001 23.4 50.4001 22.6V17.8C50.0001 17.1 48.8001 16.4 47.6001 16.4C45.3001 16.4 43.6001 17.8 43.6001 20.2C43.6001 22.6 45.3001 24 47.6001 24ZM55.8001 26.8H59.2001V13.7H55.8001V26.8ZM102.9 14.8C102.9 14.8 104 13.4 106.3 13.4C110.1 13.4 113 16.3 113 20.3C113 24.3 110 27.2 106.2 27.2C103.9 27.2 102.8 25.8 102.8 25.8V26.4C102.8 26.7 102.6 26.9 102.3 26.9H99.5001V7.50002H102.9V14.8ZM105.7 24C104.4 24 103.4 23.3 102.9 22.6V17.9C103.4 17.2 104.6 16.5 105.7 16.5C108 16.5 109.7 17.9 109.7 20.3C109.7 22.7 108 24 105.7 24ZM97.7001 26.8V19C97.7001 16.9 97.3001 15.6 96.1001 14.7C95.1001 13.8 93.9001 13.4 92.4001 13.4C91.1001 13.4 89.8001 13.8 88.8001 14.8V14.2C88.8001 13.9 88.6001 13.7 88.3001 13.7H85.6001V26.8H89.0001V17.7C89.6001 16.9 90.7001 16.4 91.7001 16.4C93.6001 16.4 94.3001 17.2 94.3001 19.4V26.8H97.7001ZM77.4001 13.4C75.1001 13.4 74.0001 14.8 74.0001 14.8V7.50002H70.6001V26.9H73.4001C73.7001 26.9 73.9001 26.7 73.9001 26.4V25.8C73.9001 25.8 75.0001 27.2 77.3001 27.2C81.1001 27.2 84.1001 24.3 84.1001 20.3C84.3001 16.3 81.3001 13.4 77.4001 13.4ZM74.1001 22.6C74.6001 23.3 75.6001 24 76.9001 24C79.1001 24 80.9001 22.7 80.9001 20.3C80.9001 17.9 79.2001 16.5 76.9001 16.5C75.8001 16.5 74.6001 17.2 74.1001 17.9V22.6ZM67.7001 13.4C68.7001 13.4 69.2001 13.6 69.2001 13.6V16.7C69.2001 16.7 66.4001 15.8 64.6001 17.7V26.9H61.2001V13.7H64.0001C64.3001 13.7 64.5001 13.9 64.5001 14.2V14.8C65.3001 14 66.7001 13.4 67.7001 13.4ZM16.8001 27.4C14.9001 25 13.7001 22.8 13.2001 20.9C13.0001 20.1 13.0001 19.4 13.1001 18.8C13.2001 18.2 13.4001 17.8 13.7001 17.3C14.4001 16.4 15.5001 15.8 16.8001 15.8C18.1001 15.8 19.3001 16.4 19.9001 17.3C20.2001 17.7 20.4001 18.2 20.5001 18.8C20.6001 19.4 20.6001 20.2 20.4001 20.9C19.9001 22.8 18.7001 25 16.8001 27.4ZM27.6001 33.2C29.3001 32.5 30.6001 30.9 30.8001 29.1C31.0001 28.2 30.9001 27.3 30.5001 26.4C30.4001 26.1 30.2001 25.7 30.0001 25.3L30.0001 25.3C29.8235 25.0057 29.6815 24.6766 29.5334 24.3334C29.4299 24.0936 29.3235 23.8468 29.2001 23.6C26.8001 18.4 24.2001 13.1 21.5001 7.90002L21.4001 7.70002C21.2001 7.20002 20.9001 6.60002 20.6001 6.10002L20.6001 6.1C20.3001 5.60001 20.0001 5.10001 19.6001 4.60002C18.9001 3.80002 17.9001 3.30002 16.8001 3.30002C15.7001 3.30002 14.7001 3.80002 14.0001 4.60002C13.6001 5.00002 13.3001 5.50002 13.0001 6.10002C12.8001 6.60002 12.5001 7.20002 12.2001 7.70002L12.1001 7.90002C9.40009 13 6.80009 18.3 4.40009 23.5V23.6C4.32346 23.7533 4.24683 23.9 4.17186 24.0436C3.95335 24.462 3.749 24.8533 3.60009 25.3C3.40009 25.7 3.20009 26.1 3.10009 26.4C2.80009 27.4 2.70009 28.2 2.80009 29.1C3.00009 30.9 4.30009 32.5 6.00009 33.2C6.80009 33.5 7.70009 33.6 8.70009 33.5C9.60009 33.4 10.5001 33.1 11.4001 32.6C12.7001 31.9 14.0001 30.8 15.4001 29.2C13.1001 26.4 11.6001 23.8 11.1001 21.5C10.8001 20.4 10.8001 19.4 10.9001 18.5C11.0001 17.6 11.3001 16.8 11.8001 16.1C12.9001 14.5 14.8001 13.6 16.8001 13.6C18.9001 13.6 20.7001 14.5 21.8001 16.1C22.2001 16.8 22.6001 17.6 22.7001 18.5C22.8001 19.4 22.7001 20.4 22.5001 21.5C21.9001 23.8 20.5001 26.4 18.2001 29.2C19.7001 30.8 20.9001 31.9 22.2001 32.6C23.1001 33.1 24.0001 33.4 24.9001 33.5C25.8001 33.7 26.8001 33.5 27.6001 33.2Z" fill="#FF5A5F"/>
</svg>
