<svg width="32" height="32" viewBox="0 0 32 32" fill="none" xmlns="http://www.w3.org/2000/svg">
<rect width="32" height="32" fill="#FF5B5E"/>
<path fill-rule="evenodd" clip-rule="evenodd" d="M25.0829 20.1954C24.9703 19.9655 24.8576 19.6782 24.8012 19.4483C24.6322 19.1034 24.4632 18.7586 24.3505 18.4138C22.9984 15.4253 21.5336 12.3793 19.9561 9.3908L19.8997 9.27586C19.7307 8.98851 19.5617 8.64368 19.449 8.35632C19.3799 8.25059 19.3161 8.13945 19.2511 8.02623C19.1041 7.77019 18.951 7.50346 18.7166 7.26437C18.0969 6.45977 17.1955 6 16.1814 6C15.1672 6 14.3222 6.45977 13.6461 7.2069C13.4433 7.45513 13.2697 7.73315 13.1043 7.99807L13.1043 7.99808L13.1043 7.9981C13.0399 8.10117 12.9768 8.20227 12.9137 8.29885C12.8551 8.41839 12.7965 8.53102 12.7403 8.63914L12.7402 8.63917C12.6342 8.84293 12.5366 9.03066 12.463 9.21839L12.4066 9.33333C10.8291 12.3793 9.36431 15.4253 8.01217 18.4138V18.4713C7.94394 18.6801 7.85505 18.8678 7.75801 19.0728L7.75801 19.0728C7.6948 19.2063 7.62813 19.3471 7.56146 19.5057C7.44878 19.7356 7.33611 19.9655 7.27977 20.2529C6.99807 21 6.94173 21.6897 7.05441 22.4368C7.27977 23.931 8.23753 25.1954 9.64601 25.7701C10.0404 25.8851 10.6038 26 11.1672 26C11.3362 26 11.5052 26 11.6742 25.9425C12.3503 25.8851 13.0264 25.6552 13.6461 25.2529C14.4348 24.7931 15.2236 24.1034 16.125 23.1839C16.9701 24.1609 17.8152 24.7931 18.6039 25.2529C19.28 25.6552 19.9561 25.8276 20.5758 25.9425C20.6603 25.9425 20.7448 25.9569 20.8293 25.9713L20.8293 25.9713C20.9138 25.9856 20.9983 26 21.0829 26C21.6462 26 22.2096 25.8851 22.6604 25.6552C24.0688 25.0805 25.0266 23.8161 25.252 22.3218C25.421 21.6322 25.3083 20.9425 25.0829 20.1954ZM16.125 21.2299C15.0546 19.8506 14.3785 18.5862 14.0968 17.4943C13.9841 17.0345 13.9841 16.6322 14.0405 16.2874C14.0968 15.9425 14.2095 15.7126 14.3785 15.4253C14.7729 14.908 15.3926 14.5632 16.125 14.5632C16.8574 14.5632 17.5335 14.908 17.8715 15.4253C18.0405 15.6552 18.1532 15.9425 18.2096 16.2874C18.2659 16.6322 18.2659 17.092 18.1532 17.4943C17.8715 18.5862 17.1955 19.8506 16.125 21.2299ZM22.2096 24.5632C23.1674 24.1609 23.8998 23.2414 24.0125 22.2069C24.1252 21.6897 24.0688 21.1724 23.8435 20.6552C23.7871 20.4828 23.6745 20.2529 23.5618 20.023C23.4623 19.8538 23.3823 19.6647 23.2989 19.4674C23.2406 19.3296 23.1806 19.1878 23.1111 19.046C21.7589 16.0575 20.2941 13.0115 18.773 10.023L18.7166 9.90805C18.6039 9.62069 18.4349 9.27586 18.2659 8.98851C18.0969 8.70115 17.9279 8.41379 17.7025 8.12644C17.3081 7.66667 16.7447 7.37931 16.125 7.37931C15.5053 7.37931 14.9419 7.66667 14.5475 8.12644C14.3222 8.35632 14.1531 8.64368 13.9841 8.98851C13.8714 9.27586 13.7024 9.62069 13.5334 9.90805L13.4771 10.023C11.9559 12.954 10.4911 16 9.13896 18.9885V19.046C9.09578 19.1341 9.05261 19.2184 9.01038 19.3009C8.88727 19.5414 8.77214 19.7662 8.68824 20.023C8.57557 20.2529 8.46289 20.4828 8.40655 20.6552C8.23753 21.2299 8.18119 21.6897 8.23753 22.2069C8.35021 23.2414 9.08262 24.1609 10.0404 24.5632C10.4911 24.7356 10.9981 24.7931 11.5615 24.7356C12.0686 24.6782 12.5756 24.5057 13.0827 24.2184C13.8151 23.8161 14.5475 23.1839 15.3363 22.2644C14.0405 20.6552 13.1954 19.1609 12.9137 17.8391C12.7447 17.2069 12.7447 16.6322 12.801 16.1149C12.8573 15.5977 13.0264 15.1379 13.3081 14.7356C13.9278 13.8161 14.9982 13.2989 16.125 13.2989C17.3081 13.2989 18.3222 13.8161 18.942 14.7356C19.1673 15.1379 19.3927 15.5977 19.449 16.1149C19.5054 16.6322 19.449 17.2069 19.3363 17.8391C18.9983 19.1609 18.2096 20.6552 16.9138 22.2644C17.7588 23.1839 18.4349 23.8161 19.1673 24.2184C19.6744 24.5057 20.1814 24.6782 20.6885 24.7356C21.1955 24.8506 21.7589 24.7356 22.2096 24.5632Z" fill="white"/>
</svg>
