<svg width="161" height="44" viewBox="0 0 161 44" fill="none" xmlns="http://www.w3.org/2000/svg">
<path fill-rule="evenodd" clip-rule="evenodd" d="M62.9843 21.9542C62.9843 19.7142 61.3843 17.7942 58.4243 17.7942C55.4643 17.7942 53.8643 19.7942 53.8643 21.9542V22.1942C53.8643 24.4342 55.4643 26.4342 58.4243 26.4342C61.3843 26.4342 62.9843 24.4342 62.9843 22.1942V21.9542ZM58.4243 28.2742C54.3443 28.2742 51.7043 25.3142 51.7043 22.2742V21.9542C51.7043 18.8342 54.3443 15.9542 58.4243 15.9542C62.5043 15.9542 65.1443 18.8342 65.1443 21.9542V22.3542C65.1443 25.3942 62.5043 28.2742 58.4243 28.2742Z" fill="#388DB9"/>
<path fill-rule="evenodd" clip-rule="evenodd" d="M7.3044 18.5942L4.8244 23.3942H9.9444L7.3044 18.5942ZM12.3444 27.8742L10.8244 25.0742H4.0244L2.5844 27.8742H0.264404L6.5044 16.3542H8.2644L14.5844 27.7942H12.3444V27.8742Z" fill="#0A0B09"/>
<path fill-rule="evenodd" clip-rule="evenodd" d="M24.4799 28.32C20.3199 28.32 18.3999 26.08 18.3999 23.12V16.4H20.5599V23.12C20.5599 25.2 21.9999 26.48 24.6399 26.48C27.3599 26.48 28.4799 25.2 28.4799 23.12V16.4H30.6399V23.12C30.6399 25.92 28.7999 28.32 24.4799 28.32Z" fill="#0A0B09"/>
<path fill-rule="evenodd" clip-rule="evenodd" d="M42.6399 18.16V27.84H40.4799V18.16H35.4399V16.4H47.6799V18.16H42.6399Z" fill="#0A0B09"/>
<path fill-rule="evenodd" clip-rule="evenodd" d="M84.4001 27.84V18.8L83.8401 19.76L79.0401 27.84H78.0001L73.2001 19.76L72.6401 18.8V27.84H70.5601V16.4H73.5201L78.0801 24.24L78.5601 25.2L79.1201 24.24L83.6001 16.4H86.5601V27.84H84.4001Z" fill="#0A0B09"/>
<path fill-rule="evenodd" clip-rule="evenodd" d="M97.9999 18.64L95.5199 23.44H100.64L97.9999 18.64ZM102.96 27.84L101.44 25.04H94.6399L93.1999 27.84H90.8799L97.1199 16.4H98.8799L105.2 27.84H102.96Z" fill="#0A0B09"/>
<path fill-rule="evenodd" clip-rule="evenodd" d="M114 18.16V27.84H111.84V18.16H106.8V16.4H119.04V18.16H114Z" fill="#0A0B09"/>
<path fill-rule="evenodd" clip-rule="evenodd" d="M129.84 18.16V27.84H127.68V18.16H122.64V16.4H134.88V18.16H129.84Z" fill="#0A0B09"/>
<path fill-rule="evenodd" clip-rule="evenodd" d="M140.24 27.8399V17.4399C141.12 17.4399 141.44 16.9599 141.44 16.3199H142.32V27.7599H140.24" fill="#0A0B09"/>
<path fill-rule="evenodd" clip-rule="evenodd" d="M159.28 19.6C158.24 18.64 156.72 17.76 154.64 17.76C151.6 17.76 149.84 19.84 149.84 22.08V22.32C149.84 24.48 151.6 26.48 154.8 26.48C156.72 26.48 158.32 25.6 159.28 24.64L160.56 26C159.28 27.2 157.12 28.32 154.64 28.32C150.32 28.32 147.6 25.52 147.6 22.4V22C147.6 18.88 150.48 16 154.72 16C157.12 16 159.36 17.04 160.56 18.32L159.28 19.6Z" fill="#0A0B09"/>
<path fill-rule="evenodd" clip-rule="evenodd" d="M59.8399 19.92C60.2399 20.16 60.3199 20.72 60.0799 21.04L58.0799 24.08C57.8399 24.48 57.2799 24.56 56.8799 24.32C56.4799 24.08 56.3999 23.52 56.6399 23.2L58.6399 20.16C58.9599 19.84 59.4399 19.68 59.8399 19.92Z" fill="#0A0B09"/>
</svg>
