<svg width="782" height="603" viewBox="0 0 782 603" fill="none" xmlns="http://www.w3.org/2000/svg">
<g opacity="0.3">
<mask id="mask0" mask-type="alpha" maskUnits="userSpaceOnUse" x="0" y="-79" width="925" height="925">
<path fill-rule="evenodd" clip-rule="evenodd" d="M231.63 614.37C104.123 486.864 104.123 280.136 231.63 152.63C359.136 25.1235 565.864 25.1235 693.37 152.63C820.877 280.136 820.877 486.864 693.37 614.37C565.864 741.877 359.136 741.877 231.63 614.37Z" fill="white"/>
</mask>
<g mask="url(#mask0)">
<path d="M759.963 751.385V49.4783" stroke="white" stroke-width="2" stroke-dasharray="40 40"/>
<path d="M651.109 751.385V49.4783" stroke="white" stroke-width="2" stroke-dasharray="40 40"/>
<path d="M542.255 751.385V49.4783" stroke="white" stroke-width="2" stroke-dasharray="40 40"/>
<path d="M433.401 751.385V49.4783" stroke="white" stroke-width="2" stroke-dasharray="40 40"/>
<path d="M324.547 751.385V49.4783" stroke="white" stroke-width="2" stroke-dasharray="40 40"/>
<path d="M216.333 750.745V48.8376" stroke="white" stroke-width="2" stroke-dasharray="40 40"/>
<path d="M108.119 751.385V49.4783" stroke="white" stroke-width="2" stroke-dasharray="40 40"/>
<path opacity="0.25" d="M705.536 773.8V71.8928" stroke="white" stroke-width="2" stroke-dasharray="40 40"/>
<path opacity="0.25" d="M596.682 730.251V28.3445" stroke="white" stroke-width="2" stroke-dasharray="40 40"/>
<path opacity="0.25" d="M487.828 773.8V71.8928" stroke="white" stroke-width="2" stroke-dasharray="40 40"/>
<path opacity="0.25" d="M379.614 730.892V28.9846" stroke="white" stroke-width="2" stroke-dasharray="40 40"/>
<path opacity="0.25" d="M270.76 774.44V72.5329" stroke="white" stroke-width="2" stroke-dasharray="40 40"/>
<path opacity="0.25" d="M161.906 730.892V28.9846" stroke="white" stroke-width="2" stroke-dasharray="40 40"/>
</g>
</g>
</svg>
