<svg width="854" height="241" viewBox="0 0 854 241" fill="none" xmlns="http://www.w3.org/2000/svg">
<g opacity="0.24">
<mask id="mask0" mask-type="alpha" maskUnits="userSpaceOnUse" x="0" y="-202" width="924" height="924">
<path fill-rule="evenodd" clip-rule="evenodd" d="M230.87 490.611C103.364 363.105 103.364 156.377 230.87 28.8704C358.377 -98.6358 565.105 -98.6358 692.611 28.8704C820.117 156.377 820.117 363.105 692.611 490.611C565.105 618.117 358.377 618.117 230.87 490.611Z" fill="white"/>
</mask>
<g mask="url(#mask0)">
<path d="M759.203 627.626V-74.281" stroke="#576867" stroke-width="2" stroke-dasharray="40 40"/>
<path d="M650.349 627.626V-74.281" stroke="#576867" stroke-width="2" stroke-dasharray="40 40"/>
<path d="M541.495 627.626V-74.281" stroke="#576867" stroke-width="2" stroke-dasharray="40 40"/>
<path d="M432.641 627.626V-74.281" stroke="#576867" stroke-width="2" stroke-dasharray="40 40"/>
<path d="M323.787 627.626V-74.281" stroke="#576867" stroke-width="2" stroke-dasharray="40 40"/>
<path d="M215.574 626.985V-74.9217" stroke="#576867" stroke-width="2" stroke-dasharray="40 40"/>
<path d="M107.36 627.626V-74.281" stroke="white" stroke-width="2" stroke-dasharray="40 40"/>
<path opacity="0.25" d="M704.776 650.041V-51.8665" stroke="#576867" stroke-width="2" stroke-dasharray="40 40"/>
<path opacity="0.25" d="M595.922 606.492V-95.4148" stroke="#576867" stroke-width="2" stroke-dasharray="40 40"/>
<path opacity="0.25" d="M487.068 650.041V-51.8665" stroke="#576867" stroke-width="2" stroke-dasharray="40 40"/>
<path opacity="0.25" d="M378.855 607.132V-94.7747" stroke="#576867" stroke-width="2" stroke-dasharray="40 40"/>
<path opacity="0.25" d="M270.001 650.681V-51.2263" stroke="#576867" stroke-width="2" stroke-dasharray="40 40"/>
<path opacity="0.25" d="M161.147 607.132V-94.7747" stroke="#576867" stroke-width="2" stroke-dasharray="40 40"/>
</g>
</g>
</svg>
