<svg width="727" height="818" viewBox="0 0 727 818" fill="none" xmlns="http://www.w3.org/2000/svg">
<g opacity="0.5">
<mask id="mask0" mask-type="alpha" maskUnits="userSpaceOnUse" x="-91" y="0" width="818" height="818">
<path fill-rule="evenodd" clip-rule="evenodd" d="M318 818C92.1155 818 -91 634.884 -91 409C-91 183.116 92.1155 0 318 0C543.884 0 727 183.116 727 409C727 634.884 543.884 818 318 818Z" fill="white"/>
</mask>
<g mask="url(#mask0)">
<path d="M907.351 471.379L285.616 -150.356" stroke="#211437" stroke-width="2" stroke-dasharray="40 40"/>
<path d="M810.93 567.799L189.196 -53.9349" stroke="#211437" stroke-width="2" stroke-dasharray="40 40"/>
<path d="M714.51 664.22L92.7754 42.4855" stroke="#211437" stroke-width="2" stroke-dasharray="40 40"/>
<path d="M618.089 760.64L-3.64498 138.906" stroke="#211437" stroke-width="2" stroke-dasharray="40 40"/>
<path d="M521.669 857.061L-100.066 235.327" stroke="#211437" stroke-width="2" stroke-dasharray="40 40"/>
<path d="M425.248 952.347L-196.486 330.612" stroke="#211437" stroke-width="2" stroke-dasharray="40 40"/>
<path d="M329.962 1048.77L-291.772 427.033" stroke="#211437" stroke-width="2" stroke-dasharray="40 40"/>
<path opacity="0.25" d="M878.995 539.443L257.261 -82.2909" stroke="#211437" stroke-width="2" stroke-dasharray="40 40"/>
<path opacity="0.25" d="M744 597.289L122.266 -24.4447" stroke="#211437" stroke-width="2" stroke-dasharray="40 40"/>
<path opacity="0.25" d="M686.154 732.284L64.4197 110.55" stroke="#211437" stroke-width="2" stroke-dasharray="40 40"/>
<path opacity="0.25" d="M552.294 790.131L-69.4406 168.396" stroke="#211437" stroke-width="2" stroke-dasharray="40 40"/>
<path opacity="0.25" d="M494.447 925.125L-127.287 303.391" stroke="#211437" stroke-width="2" stroke-dasharray="40 40"/>
<path opacity="0.25" d="M359.452 982.972L-262.282 361.237" stroke="#211437" stroke-width="2" stroke-dasharray="40 40"/>
</g>
</g>
</svg>
