<svg width="44" height="44" viewBox="0 0 44 44" fill="none" xmlns="http://www.w3.org/2000/svg">
<path fill-rule="evenodd" clip-rule="evenodd" d="M37.2 6.32C32.96 2.08 27.84 0 21.84 0C15.84 0 10.72 2.08 6.4 6.32C2.08 10.56 0 15.68 0 21.6C0 27.6 2.16 32.72 6.4 36.96C10.64 41.2 15.76 43.28 21.76 43.28C27.76 43.28 32.88 41.2 37.12 36.96C41.36 32.72 43.52 27.6 43.52 21.6C43.6 15.68 41.44 10.56 37.2 6.32ZM36.48 36.24C32.48 40.24 27.52 42.32 21.84 42.32C16.16 42.32 11.28 40.32 7.2 36.24C3.12 32.24 1.12 27.36 1.12 21.68C1.12 16 3.12 11.12 7.2 7.12C11.28 3.12 16.16 1.12 21.84 1.12C27.52 1.12 32.4 3.12 36.48 7.2C40.56 11.28 42.56 16.08 42.56 21.76C42.56 27.44 40.56 32.16 36.48 36.24ZM29.92 5.2C33.52 6.24 36.24 8.4 38.24 11.6C40.08 14.48 40.96 17.68 41.12 21.44C41.12 23.6 40.8 25.68 40.16 27.6L40 27.52C40.48 25.84 40.72 24.24 40.72 22.88C40.72 21.6 40.48 20.56 40 19.76C39.52 18.96 38.96 18.56 38.24 18.56C37.28 18.56 36.8 19.12 36.8 20.08C36.8 20.48 37.12 21.12 37.76 22C38.4 22.88 38.72 24 38.72 25.36C38.72 26.56 38.48 28 37.92 29.68C36.8 33.2 34.72 36 31.52 37.92C28.56 39.76 25.28 40.64 21.6 40.64C18.88 40.64 16.88 40.32 15.44 39.68L15.52 39.52C16.72 40 18.24 40.24 20.16 40.24C21.44 40.24 22.4 40 23.2 39.52C23.92 39.12 24.32 38.48 24.32 37.84C24.32 36.8 23.84 36.32 22.8 36.32C22.4 36.32 21.76 36.72 20.88 37.36C20 38.08 18.96 38.4 17.6 38.4C16.32 38.4 14.88 38.08 13.2 37.6C9.6 36.56 6.8 34.4 4.72 31.28C2.88 28.4 2 25.04 2 21.36C2 19.84 2.32 17.84 2.96 15.28L3.12 15.36C2.64 16.8 2.4 18.4 2.4 20C2.4 22.8 3.2 24.16 4.88 24.16C5.84 24.16 6.32 23.68 6.32 22.72C6.32 22.32 6 21.68 5.36 20.8C4.72 19.84 4.4 18.72 4.4 17.44C4.4 16.16 4.64 14.72 5.2 13.04C6.32 9.52 8.4 6.72 11.6 4.8C14.56 2.96 17.84 2.08 21.52 2.08C23.76 2.08 25.76 2.48 27.68 3.12L27.6 3.28C26.56 2.72 25.04 2.48 22.96 2.48C21.68 2.48 20.72 2.72 19.92 3.2C19.2 3.68 18.8 4.24 18.8 4.96C18.8 5.92 19.28 6.4 20.32 6.4C20.72 6.4 21.36 6.08 22.24 5.36C23.12 4.72 24.16 4.4 25.52 4.4C26.72 4.4 28.16 4.72 29.92 5.2ZM32 31.12C30.88 32.24 29.52 32.8 27.84 32.8C25.84 32.8 24.32 32.08 23.12 30.64C22.08 29.44 21.52 27.92 21.52 26.24C21.52 23.12 22.96 20.8 25.84 19.36C25.631 19.2207 25.4827 19.0207 25.2894 18.76L25.2893 18.76C25.2607 18.7213 25.231 18.6813 25.2 18.64C23.52 19.84 21.68 20.96 19.68 22.08C19.52 24.64 19.28 26.48 18.88 27.52C17.68 31.04 15.76 32.8 12.96 32.8C11.84 32.8 10.96 32.48 10.4 31.76C9.76 31.12 9.52 30.24 9.52 29.28C9.52 27.76 10.24 26.32 11.68 25.04L11.8133 24.9333C12.5779 24.3207 13.4218 23.6447 14.48 23.04C15.04 22.72 16.24 22.08 18 21.2C18.0167 21.0998 18.0334 21.0031 18.0494 20.9106L18.0494 20.9106L18.0494 20.9105C18.1099 20.5599 18.16 20.2699 18.16 20.08C17.52 20.64 16.72 20.88 15.76 20.88C14.4 20.88 13.52 20.16 13.2 18.64C11.2 18.48 10.24 17.44 10.16 15.44C10.08 13.76 10.64 12.88 11.6 12.88C11.92 12.88 12.08 13.04 12.08 13.44C12.08 13.44 12 13.68 11.92 14.16C11.84 14.56 11.76 14.96 11.76 15.28C11.76 16.48 12.24 17.04 13.12 17.04C13.12 15.44 13.6 13.84 14.64 12.24C15.68 10.64 16.8 9.92 18.08 9.92C19.44 9.92 20.16 10.56 20.16 11.84C20.16 13.2 19.6 14.56 18.48 15.92C17.36 17.28 16.24 18.16 15.04 18.56C15.2 19.12 15.52 19.44 16.08 19.44C16.96 19.44 17.84 18.96 18.64 17.92C19.04 15.92 19.84 14.88 20.96 14.88C21.44 14.88 21.68 15.12 21.68 15.68C21.68 16.32 21.12 17.28 20 18.48C19.84 19.04 19.84 19.68 19.84 20.24V20.24C21.92 19.04 23.52 18 24.64 17.2C24.56 16.96 24.48 16.48 24.48 15.84C24.48 14.4 24.88 13.04 25.76 11.76C26.64 10.56 27.6 9.92 28.8 9.92C30.24 9.92 30.88 10.56 30.88 11.92C30.88 13.6 29.44 15.52 26.64 17.6C26.88 18.16 27.2 18.56 27.6 18.72C27.68 18.56 28.16 18.48 29.12 18.48C30.32 18.48 30.88 18.8 30.88 19.36C30.88 20 30.16 20.4 28.8 20.4H28.8C28.48 20.4 28.08 20.4 27.52 20.32C24.96 20.96 23.68 22.88 23.68 26C23.68 27.36 24.08 28.56 24.88 29.52C25.68 30.48 26.64 30.96 27.84 30.96C28.88 30.96 29.68 30.64 30.4 29.92C31.12 29.28 31.44 28.4 31.44 27.28C31.52 25.36 30.8 24.32 29.36 24.32C28.48 24.32 28 24.72 28 25.6C28 26 28.16 26.4 28.4 26.8C28.72 27.12 28.8 27.44 28.8 27.68C28.8 28.16 28.48 28.48 27.92 28.48C27.28 28.48 26.8 28.24 26.4 27.68C26 27.2 25.76 26.56 25.76 25.76C25.76 24.88 26.08 24.08 26.8 23.44C27.52 22.8 28.32 22.48 29.36 22.48C30.64 22.48 31.6 22.96 32.32 23.84C33.04 24.72 33.44 25.84 33.44 27.2C33.6 28.72 33.04 30 32 31.12ZM27.6 12.72C28.08 11.84 28.56 11.44 29.04 11.44C29.28 11.44 29.44 11.68 29.44 12.08C29.44 12.88 28.56 14.08 26.8 15.6C26.8 14.56 27.12 13.52 27.6 12.72ZM18.48 11.44C17.84 11.44 17.12 12.08 16.4 13.28C15.6 14.56 15.28 15.68 15.28 16.64C16.32 16.16 17.12 15.36 17.84 14.4C18.56 13.44 18.88 12.56 18.88 11.84C18.96 11.6 18.8 11.44 18.48 11.44ZM13.04 30.8C12.08 30.8 11.6 30.24 11.6 29.2C11.6 27.04 13.68 24.96 17.92 23.04C17.6 25.04 17.12 26.8 16.32 28.24C15.36 29.92 14.24 30.8 13.04 30.8Z" fill="#3B73B9"/>
</svg>
