<svg width="117" height="44" viewBox="0 0 117 44" fill="none" xmlns="http://www.w3.org/2000/svg">
<path fill-rule="evenodd" clip-rule="evenodd" d="M116.72 19.2V21.2V21.28H114.08V26.24C114.08 26.88 114.16 27.36 114.4 27.6C114.64 27.92 115.04 28 115.52 28C115.6 28 115.84 28 116 27.92C116.24 27.84 116.4 27.76 116.56 27.68L116.64 27.6V29.6C116.48 29.68 116.24 29.76 115.84 29.84C115.68 29.84 115.5 29.86 115.32 29.88C115.14 29.9 114.96 29.92 114.8 29.92C112.64 29.92 111.6 28.8 111.6 26.56V21.2H107.84V29.68H105.28V21.2H103.52V19.2H105.28V17.76C105.28 17.04 105.44 16.4 105.76 15.84C106.08 15.2 106.56 14.8 107.12 14.48C107.68 14.16 108.4 14 109.12 14C109.76 14 110.24 14.08 110.56 14.16H110.64V16.32L110.56 16.24C110.16 16.08 109.76 16 109.44 16C108.88 16 108.48 16.16 108.24 16.48C108 16.8 107.84 17.2 107.84 17.84V19.2H111.6V16.8H111.68L114.08 16.08H114.16V19.2H116.72ZM51.2001 15.2C51.4401 14.96 51.8401 14.8 52.2401 14.8C52.7201 14.8 53.0401 14.96 53.3601 15.2C53.6001 15.52 53.7601 15.84 53.7601 16.24C53.7601 16.64 53.6001 17.04 53.2801 17.28C53.0401 17.52 52.6401 17.68 52.2401 17.68C51.8401 17.68 51.5201 17.52 51.2001 17.28C50.8801 16.96 50.7201 16.64 50.7201 16.24C50.7201 15.84 50.8801 15.44 51.2001 15.2ZM41.2001 24.24L40.4801 26.16H40.4001C40.3201 25.76 40.0801 25.04 39.7601 24.24L36.0001 15.12H32.3201V29.68H34.7201V20.72V18.72C34.7201 18.4946 34.6947 18.2946 34.6725 18.12C34.6553 17.9848 34.6401 17.8648 34.6401 17.76H34.7201C34.7758 18.1504 34.8705 18.4631 34.9498 18.7251C34.9843 18.8389 35.0158 18.9431 35.0401 19.04L39.5201 29.68H41.2001L45.6801 18.96C45.7097 18.8712 45.7392 18.7497 45.7729 18.6115L45.7729 18.6114L45.7729 18.6114L45.7729 18.6113L45.7729 18.6113C45.8302 18.3758 45.8993 18.092 46.0001 17.84H46.0801C46.0001 18.88 46.0001 19.84 46.0001 20.48V29.76H48.5601V15.12H45.0401L41.2001 24.24ZM50.9601 19.2H53.4401V29.68H50.9601V19.2ZM62.4001 19.12C61.9201 19.04 61.4401 18.96 60.9601 18.96C59.8401 18.96 58.8001 19.2 57.9201 19.68C57.0401 20.16 56.3201 20.88 55.9201 21.68C55.4401 22.56 55.2001 23.52 55.2001 24.72C55.2001 25.76 55.4401 26.64 55.8401 27.44C56.3201 28.24 56.8801 28.88 57.7601 29.28C58.5601 29.68 59.5201 29.92 60.5601 29.92C61.7601 29.92 62.8001 29.68 63.6001 29.2V26.96L63.5201 27.04C63.1201 27.28 62.7201 27.52 62.3201 27.68C61.8401 27.84 61.4401 27.92 61.1201 27.92C60.0801 27.92 59.3601 27.6 58.8001 27.04C58.2401 26.4 57.9201 25.6 57.9201 24.56C57.9201 23.52 58.2401 22.64 58.8001 22C59.3601 21.36 60.1601 21.04 61.1201 21.04C61.9201 21.04 62.8001 21.28 63.5201 21.84L63.6001 21.92V19.52C63.2801 19.36 62.8801 19.2 62.4001 19.12ZM69.0401 19.6C69.5201 19.2 70.0801 19.04 70.7201 19.04C71.1201 19.04 71.4401 19.12 71.5201 19.2H71.6001V21.6L71.5201 21.52C71.4401 21.44 71.2001 21.36 70.9601 21.28C70.8401 21.28 70.7201 21.26 70.6001 21.24C70.4801 21.22 70.3601 21.2 70.2401 21.2C69.6001 21.2 69.0401 21.52 68.6401 22.08C68.1601 22.64 68.0001 23.44 68.0001 24.32V29.68H65.6001V19.2H68.0801V21.04C68.3201 20.4 68.6401 19.92 69.0401 19.6ZM77.5201 18.96C75.7601 18.96 74.3201 19.44 73.3601 20.48C72.3201 21.52 71.8401 22.88 71.8401 24.56C71.8401 26.16 72.3201 27.52 73.2801 28.48C74.2401 29.44 75.6001 29.92 77.2001 29.92C78.9601 29.92 80.3201 29.44 81.2801 28.4C82.3201 27.36 82.8001 26 82.8001 24.32C82.8001 22.64 82.3201 21.36 81.3601 20.4C80.5601 19.44 79.2001 18.96 77.5201 18.96ZM77.4401 27.92C78.3201 27.92 79.0401 27.6 79.5201 27.04C80.0801 26.4 80.2401 25.52 80.3201 24.56C80.3201 23.44 80.0001 22.56 79.5201 22C79.0401 21.44 78.3201 21.12 77.4401 21.12C76.4801 21.12 75.8401 21.36 75.2801 22C74.7201 22.56 74.4801 23.44 74.4801 24.56C74.4801 25.6 74.7201 26.48 75.2801 27.04C75.7601 27.6 76.5601 27.92 77.4401 27.92ZM88.4801 23.52C87.6801 23.2 87.2001 22.96 86.9601 22.72C86.8001 22.56 86.6401 22.24 86.6401 21.92C86.6401 21.6 86.7201 21.36 87.0401 21.2C87.3601 21.04 87.6801 20.88 88.1601 20.88C88.5601 20.88 89.0401 20.96 89.4401 21.04C89.763 21.1046 90.086 21.2735 90.3668 21.4204C90.4338 21.4554 90.4984 21.4892 90.5601 21.52L90.6401 21.6V19.28H90.5601C90.4409 19.2502 90.3218 19.2093 90.1944 19.1656C89.9796 19.092 89.7414 19.0102 89.4401 18.96C88.9601 18.88 88.5601 18.88 88.2401 18.88C87.0401 18.88 86.0801 19.2 85.2801 19.76C84.4801 20.32 84.1601 21.12 84.1601 22.08C84.1601 22.56 84.2401 23.04 84.4001 23.36C84.5601 23.68 84.8001 24.08 85.2001 24.32C85.5201 24.56 86.0801 24.88 86.7201 25.2C86.9066 25.2799 87.0843 25.351 87.2471 25.4162L87.2474 25.4163L87.2475 25.4163C87.5734 25.5467 87.8401 25.6533 88.0001 25.76C88.2401 25.92 88.4801 26.08 88.5601 26.24C88.6401 26.4 88.7201 26.56 88.7201 26.8C88.7201 27.52 88.1601 27.84 87.0401 27.84C86.6401 27.84 86.1601 27.76 85.6801 27.6C85.1201 27.44 84.6401 27.2 84.2401 26.88L84.1601 26.8V29.2H84.2401C84.6401 29.36 85.0401 29.52 85.6001 29.6C85.6818 29.6117 85.7617 29.6233 85.84 29.6348C86.2984 29.7016 86.6984 29.76 87.0401 29.76C88.3201 29.76 89.3601 29.44 90.1601 28.88C90.9601 28.24 91.3601 27.52 91.3601 26.48C91.3601 25.76 91.2001 25.12 90.7201 24.72C90.5947 24.6483 90.4612 24.5686 90.3189 24.4836L90.3188 24.4836L90.3188 24.4836L90.3187 24.4836C89.8254 24.189 89.225 23.8304 88.4801 23.52ZM93.8401 20.48C94.8001 19.44 96.2401 18.96 98.0001 18.96C99.6801 18.96 100.96 19.44 101.84 20.4C102.8 21.36 103.28 22.64 103.28 24.32C103.28 26 102.8 27.36 101.76 28.4C100.8 29.44 99.4401 29.92 97.6801 29.92C96.0801 29.92 94.7201 29.44 93.7601 28.48C92.8001 27.52 92.3201 26.16 92.3201 24.56C92.3201 22.88 92.8801 21.52 93.8401 20.48ZM100 27.04C99.5201 27.6 98.8001 27.92 97.9201 27.92C96.9601 27.92 96.2401 27.6 95.7601 27.04C95.2001 26.48 94.9601 25.6 94.9601 24.56C94.9601 23.44 95.2001 22.56 95.7601 22C96.3201 21.36 96.9601 21.12 97.9201 21.12C98.8001 21.12 99.5201 21.44 100 22C100.48 22.56 100.8 23.44 100.8 24.56C100.72 25.52 100.48 26.4 100 27.04Z" fill="#737373"/>
<path d="M0 10.24H11.84V21.76H0V10.24Z" fill="#F25022"/>
<path d="M13.1201 10.24H24.9601V21.76H13.1201V10.24Z" fill="#7FBA00"/>
<path d="M0 22.96H11.84V34.56H0V22.96Z" fill="#00A4EF"/>
<path d="M13.1201 22.96H24.9601V34.56H13.1201V22.96Z" fill="#FFB900"/>
</svg>
