<svg width="81" height="24" viewBox="0 0 81 24" fill="none" xmlns="http://www.w3.org/2000/svg">
<path fill-rule="evenodd" clip-rule="evenodd" d="M81 23.6968V0H76.6205V23.6968H81ZM22.0711 1.78863C20.151 1.20195 18.0478 0.909474 15.7671 0.909474C13.4869 0.909474 11.3778 1.20181 9.44513 1.78804C7.51224 2.37434 5.83893 3.19303 4.43144 4.24281C3.0245 5.29219 1.93297 6.51955 1.1601 7.92056C0.386362 9.32315 0 10.8362 0 12.4547C0 14.0733 0.386362 15.5863 1.1601 16.9889C1.93297 18.3899 3.0245 19.6173 4.43144 20.6667C5.83893 21.7164 7.51224 22.5351 9.44513 23.1214C11.3778 23.7077 13.4869 24 15.7671 24C18.0478 24 20.151 23.7075 22.0711 23.1208C23.989 22.5349 25.6605 21.717 27.0799 20.6689C28.5014 19.6191 29.6006 18.391 30.3741 16.9889C31.1478 15.5863 31.5342 14.0733 31.5342 12.4547C31.5342 10.8362 31.1478 9.32315 30.3741 7.92056C29.6006 6.51847 28.5014 5.29036 27.0799 4.24062C25.6605 3.19244 23.989 2.37462 22.0711 1.78863ZM65.6994 7.00788C64.5898 6.45778 63.3286 6.18442 61.9231 6.18442C60.1649 6.18442 58.5919 6.56334 57.2139 7.32393C55.8341 8.08555 54.7474 9.13554 53.9631 10.4664C53.1773 11.7997 52.7857 13.3355 52.7857 15.0619C52.7857 16.7831 53.1595 18.3237 53.9097 19.6738C54.6612 21.0262 55.7009 22.0893 57.0209 22.8541C58.3408 23.6187 59.8475 24 61.5295 24C62.5466 24 63.4992 23.8474 64.3845 23.5409C65.2568 23.2389 66.0319 22.8481 66.7079 22.3677L67.0339 22.1257L67.1956 21.9928V23.6968H71.5751V6.51789H67.1956V7.91116L67.1668 7.88906L66.8311 7.65529C66.485 7.42604 66.1077 7.21031 65.6994 7.00788ZM32.4828 6.51789H37.3706L42.5169 17.6135L47.8327 6.51789H52.5793L44.0183 23.6968H40.7497L32.4828 6.51789ZM62.2561 10.3276C61.2496 10.3276 60.3707 10.5397 59.6097 10.9611C58.8497 11.3819 58.2666 11.9438 57.8503 12.6534C57.434 13.3628 57.2257 14.1617 57.2257 15.0619C57.2257 16.0035 57.4347 16.8227 57.8503 17.531C58.2666 18.2406 58.8497 18.8025 59.6097 19.2233C60.3707 19.6447 61.2496 19.8568 62.2561 19.8568C63.2626 19.8568 64.1414 19.6447 64.9025 19.2233C65.664 18.8016 66.2534 18.238 66.68 17.526C67.1038 16.8187 67.3167 16.0015 67.3167 15.0619C67.3167 14.1638 67.1045 13.3668 66.68 12.6584C66.2534 11.9464 65.664 11.3828 64.9025 10.9611C64.1414 10.5397 63.2626 10.3276 62.2561 10.3276ZM12.5124 6.29013C13.9234 5.66851 15.5758 5.35579 17.4826 5.35579C19.3376 5.35579 20.9714 5.66838 22.3971 6.29124C23.8232 6.91423 24.9329 7.75477 25.7379 8.81999C26.5407 9.88237 26.9428 11.0899 26.9428 12.4547C26.9428 13.7996 26.5406 15.0029 25.7363 16.0764C24.9312 17.151 23.8221 17.9957 22.3971 18.6182C20.9714 19.2411 19.3376 19.5537 17.4826 19.5537C15.5758 19.5537 13.9234 19.241 12.5124 18.6193C11.0998 17.997 10.0031 17.1574 9.21052 16.093C8.41892 15.0299 8.0223 13.821 8.0223 12.4547C8.0223 11.0885 8.41892 9.87959 9.21052 8.81647C10.0031 7.75209 11.0998 6.91244 12.5124 6.29013Z" fill="white"/>
</svg>
