<svg width="20" height="20" viewBox="0 0 20 20" fill="none" xmlns="http://www.w3.org/2000/svg">
<path fill-rule="evenodd" clip-rule="evenodd" d="M19.1667 3.3335V14.1668H15.8334V16.6668H0.833374V6.66683H2.50004V3.3335H19.1667ZM14.1667 8.3335H2.50004V15.0002H14.1667V8.3335ZM10.8334 11.6668C10.8334 10.2861 9.71409 9.16683 8.33337 9.16683C6.95266 9.16683 5.83337 10.2861 5.83337 11.6668C5.83337 13.0475 6.95266 14.1668 8.33337 14.1668C9.71409 14.1668 10.8334 13.0475 10.8334 11.6668ZM17.5 5.00016H4.16671V6.66683H15.8334V12.5002H17.5V5.00016ZM7.50004 11.6668C7.50004 11.2066 7.87314 10.8335 8.33337 10.8335C8.79361 10.8335 9.16671 11.2066 9.16671 11.6668C9.16671 12.1271 8.79361 12.5002 8.33337 12.5002C7.87314 12.5002 7.50004 12.1271 7.50004 11.6668Z" fill="#B3B1B7"/>
</svg>
