<svg width="20" height="20" viewBox="0 0 20 20" fill="none" xmlns="http://www.w3.org/2000/svg">
<path fill-rule="evenodd" clip-rule="evenodd" d="M10.0001 1.66675C14.6025 1.66675 18.3334 5.39771 18.3334 10.0001C18.3334 14.6025 14.6025 18.3334 10.0001 18.3334C5.39771 18.3334 1.66675 14.6025 1.66675 10.0001C1.66675 5.39771 5.39771 1.66675 10.0001 1.66675ZM10.0001 3.33341C6.31818 3.33341 3.33341 6.31818 3.33341 10.0001C3.33341 13.682 6.31818 16.6667 10.0001 16.6667C13.682 16.6667 16.6667 13.682 16.6667 10.0001C16.6667 6.31818 13.682 3.33341 10.0001 3.33341ZM11.0252 11.0252V4.63137H9.35856L9.35841 10.1917L5.92932 10.1919V11.8586H10.1919L10.2891 11.853C10.7035 11.8048 11.0252 11.4526 11.0252 11.0252Z" fill="#B3B1B7"/>
</svg>
