<svg width="24" height="24" viewBox="0 0 24 24" fill="none" xmlns="http://www.w3.org/2000/svg">
<path fill-rule="evenodd" clip-rule="evenodd" d="M12 24C18.6274 24 24 18.6274 24 12C24 5.37258 18.6274 0 12 0C5.37258 0 0 5.37258 0 12C0 18.6274 5.37258 24 12 24Z" fill="#55ACEE"/>
<path fill-rule="evenodd" clip-rule="evenodd" d="M17.4967 7.41023C17.158 7.62718 16.3803 7.94244 15.9968 7.94244V7.94309C15.5589 7.48561 14.9424 7.20001 14.2586 7.20001C12.9306 7.20001 11.8537 8.27687 11.8537 9.60436C11.8537 9.7888 11.8751 9.96871 11.9146 10.1412H11.9142C10.1128 10.094 8.14261 9.19105 6.95656 7.6457C6.22734 8.90791 6.85838 10.3117 7.68591 10.8232C7.40264 10.8446 6.88118 10.7905 6.63573 10.5511C6.61928 11.3888 7.0221 12.4988 8.4909 12.9015C8.20802 13.0537 7.70728 13.0101 7.48955 12.9777C7.56597 13.6849 8.55631 14.6094 9.63926 14.6094C9.25328 15.0559 7.80106 15.8657 6.17139 15.6081C7.27817 16.2814 8.5681 16.6714 9.93341 16.6714C13.8133 16.6714 16.8264 13.527 16.6642 9.64788C16.6636 9.64361 16.6636 9.63933 16.6632 9.63467C16.6636 9.6247 16.6642 9.61472 16.6642 9.60436C16.6642 9.59232 16.6632 9.58092 16.6628 9.56926C17.016 9.3277 17.49 8.9004 17.8285 8.33801C17.6322 8.44616 17.0431 8.66272 16.495 8.71648C16.8467 8.52659 17.3679 7.90475 17.4967 7.41023Z" fill="white"/>
</svg>
