<svg width="16" height="16" viewBox="0 0 16 16" fill="none" xmlns="http://www.w3.org/2000/svg">
<path fill-rule="evenodd" clip-rule="evenodd" d="M8.00008 0.666687C3.94999 0.666687 0.666748 3.94993 0.666748 8.00002C0.666748 12.0501 3.94999 15.3334 8.00008 15.3334C12.0502 15.3334 15.3334 12.0501 15.3334 8.00002C15.3334 3.94993 12.0502 0.666687 8.00008 0.666687ZM13.4231 5.42941C13.7931 6.20856 14.0001 7.08012 14.0001 8.00002C14.0001 11.3137 11.3138 14 8.00008 14C4.68637 14 2.00008 11.3137 2.00008 8.00002C2.00008 4.68631 4.68637 2.00002 8.00008 2.00002C9.90324 2.00002 11.5994 2.8861 12.6986 4.26822L7.61341 9.35335L5.13007 6.95284L4.20343 7.91155L7.15821 10.7675L7.22117 10.8213C7.48283 11.0183 7.8555 10.997 8.09294 10.7595L13.4231 5.42941Z" fill="#B3B1B7"/>
</svg>
