<svg width="32" height="32" viewBox="0 0 32 32" fill="none" xmlns="http://www.w3.org/2000/svg">
<rect width="32" height="32" fill="#007EE5"/>
<path fill-rule="evenodd" clip-rule="evenodd" d="M10.133 14.1349L6 10.7123L12.0329 7L16 10.1624L19.9671 7L26 10.7123L22.0074 14.0167L25.5448 16.8217L19.5821 20.6718L16.1401 17.8496L12.4181 20.9015L6.4563 17.0517L10.133 14.1349ZM16.1059 17.8215L15.8551 17.6158L21.6843 14.0177L16 10.3709L10.1346 14.1342L16.1059 17.8215ZM22.2473 20.8321V21.7783L15.8628 25.75L9.47826 21.779V20.8332L11.9568 22.4358C12.0355 22.4866 12.1247 22.5111 12.2151 22.5111C12.3215 22.5111 12.4295 22.4732 12.5161 22.4022L15.8628 19.6594L19.2095 22.4008C19.2963 22.4732 19.4027 22.5099 19.5105 22.5099C19.6009 22.5099 19.6901 22.4855 19.7686 22.4347L22.2473 20.8321Z" fill="white"/>
</svg>
