<svg width="16" height="16" viewBox="0 0 16 16" fill="none" xmlns="http://www.w3.org/2000/svg">
<path fill-rule="evenodd" clip-rule="evenodd" d="M7.36162 1.14136H8.63852L10.0987 5.99927L14.6659 5.99327L15.056 7.20112L11.3687 9.8526L12.7591 14.4746L11.7202 15.1996L8.00007 12.4033L4.27995 15.1996L3.24102 14.4746L4.63074 9.8526L0.944092 7.20112L1.33428 5.99327L5.90074 5.99927L7.36162 1.14136ZM8.9648 6.85852L8.00007 3.64794L7.03534 6.85852L6.39602 7.33327L3.40407 7.3286L5.79573 9.04875L6.04483 9.78196L5.10274 12.9126L7.59956 11.037H8.40058L10.8967 12.9126L9.95531 9.78196L10.2044 9.04875L12.5954 7.3286L9.60412 7.33327L8.9648 6.85852Z" fill="#B3B1B7"/>
</svg>
