<svg width="16" height="16" viewBox="0 0 16 16" fill="none" xmlns="http://www.w3.org/2000/svg">
<path fill-rule="evenodd" clip-rule="evenodd" d="M8.00008 0.666748C3.94999 0.666748 0.666748 3.94999 0.666748 8.00008C0.666748 12.0502 3.94999 15.3334 8.00008 15.3334C12.0502 15.3334 15.3334 12.0502 15.3334 8.00008C15.3334 3.94999 12.0502 0.666748 8.00008 0.666748ZM13.4231 5.42947C13.7931 6.20862 14.0001 7.08018 14.0001 8.00008C14.0001 11.3138 11.3138 14.0001 8.00008 14.0001C4.68637 14.0001 2.00008 11.3138 2.00008 8.00008C2.00008 4.68637 4.68637 2.00008 8.00008 2.00008C9.90324 2.00008 11.5994 2.88616 12.6986 4.26828L7.61341 9.35341L5.13007 6.9529L4.20343 7.91161L7.15821 10.7676L7.22117 10.8213C7.48283 11.0183 7.8555 10.997 8.09294 10.7596L13.4231 5.42947Z" fill="#B3B1B7"/>
</svg>
