<svg width="16" height="16" viewBox="0 0 16 16" fill="none" xmlns="http://www.w3.org/2000/svg">
<path fill-rule="evenodd" clip-rule="evenodd" d="M8.00008 0.666626C3.94999 0.666626 0.666748 3.94987 0.666748 7.99996C0.666748 12.05 3.94999 15.3333 8.00008 15.3333C12.0502 15.3333 15.3334 12.05 15.3334 7.99996C15.3334 3.94987 12.0502 0.666626 8.00008 0.666626ZM13.4231 5.42935C13.7931 6.2085 14.0001 7.08005 14.0001 7.99996C14.0001 11.3137 11.3138 14 8.00008 14C4.68637 14 2.00008 11.3137 2.00008 7.99996C2.00008 4.68625 4.68637 1.99996 8.00008 1.99996C9.90324 1.99996 11.5994 2.88604 12.6986 4.26816L7.61341 9.35329L5.13007 6.95278L4.20343 7.91149L7.15821 10.7674L7.22117 10.8212C7.48283 11.0182 7.8555 10.9969 8.09294 10.7595L13.4231 5.42935Z" fill="#39B163"/>
</svg>
