<svg width="20" height="20" viewBox="0 0 20 20" fill="none" xmlns="http://www.w3.org/2000/svg">
<path fill-rule="evenodd" clip-rule="evenodd" d="M10.1297 1.16675C12.2528 1.16675 14.0218 2.84312 14.0765 4.86864L14.0766 5.05951C14.0766 5.19492 14.0555 5.38943 14.0152 5.65297L13.8899 6.38336L13.8304 6.70034L13.7139 7.29278C13.3097 9.28046 11.9288 10.6887 9.99999 10.6887C8.12512 10.6887 6.72919 9.34831 6.3261 7.49725L6.08211 6.21232L5.99476 5.70094C5.94782 5.40788 5.92378 5.20978 5.9245 5.10198C5.82149 3.08299 7.48865 1.39623 9.59067 1.18742L9.7954 1.17186L9.99999 1.16675H10.1297ZM15.3841 12.0954L10.1045 11.4266L9.89462 11.4267L4.70543 12.0882L4.49522 12.1283C2.89604 12.4676 1.59502 13.5218 1.43169 14.9271L1.09087 18.8334H18.8854L18.6588 15.0969L18.6399 14.904C18.4425 13.3837 17.1579 12.4236 15.3841 12.0954ZM4.95105 13.7363L9.99999 13.0921L15.1279 13.7416L15.3236 13.7822L15.5097 13.8294C16.4158 14.0811 16.9529 14.5707 16.9956 15.2035L17.114 17.1661H2.90899L3.08964 15.0957L3.11069 14.9864C3.25689 14.4396 4.0078 13.8973 4.95105 13.7363ZM9.86141 2.83708L10.1297 2.83341C11.3974 2.83341 12.441 3.8597 12.4102 5.03773C12.41 5.11209 12.3798 5.33405 12.3295 5.63491L12.1932 6.38821L12.1022 6.85414L12.0356 7.15724C11.7395 8.31551 10.9944 9.02205 9.99999 9.02205C8.9362 9.02205 8.1388 8.21779 7.92365 6.98358L7.7496 6.068L7.6739 5.63711C7.62206 5.32886 7.59008 5.10515 7.59008 5.05951L7.58862 4.90971C7.62197 3.81868 8.61527 2.90296 9.86141 2.83708Z" fill="#B3B1B7"/>
</svg>
