<svg width="16" height="16" viewBox="0 0 16 16" fill="none" xmlns="http://www.w3.org/2000/svg">
<path fill-rule="evenodd" clip-rule="evenodd" d="M7.44677 0.662109L7.9519 0.894142C9.89816 1.78816 10.3554 3.7572 9.32586 5.49343L8.83483 6.33505C8.71232 6.57066 8.70682 6.62353 8.91428 6.63024L11.6392 6.63064C12.2813 6.63853 12.9478 6.79955 13.5463 7.23633C14.4276 7.8795 14.8954 8.97196 14.8266 10.5165C14.7118 12.9777 12.5024 15.5 11.2156 15.5L5.76595 15.4999C3.65229 15.4727 1.87502 13.9432 1.61457 11.9309L0.709961 6.63039L3.26338 6.62995L7.44677 0.662109ZM7.92372 2.43126L7.86604 2.38662L3.95699 7.96372L2.28938 7.96328L2.93287 11.733C3.10475 13.0583 4.24393 14.0779 5.63026 14.1614L5.77452 14.1666H11.2156C11.157 14.1666 11.16 14.1652 11.1856 14.1532L11.1879 14.1521L11.2497 14.1207C11.3155 14.0851 11.3926 14.0373 11.4761 13.9792C11.7483 13.7899 12.0446 13.5242 12.3167 13.2136C13.0098 12.4223 13.4472 11.4734 13.4947 10.4558C13.5444 9.33924 13.2618 8.67937 12.7603 8.31333C12.424 8.06791 12.0132 7.96867 11.6309 7.96392L8.93279 7.96281C7.68495 7.92263 7.05971 6.85877 7.66726 5.69198L8.17633 4.81791C8.71437 3.91049 8.63655 3.01934 7.92372 2.43126Z" fill="#39B163"/>
</svg>
