<svg width="24" height="24" viewBox="0 0 24 24" fill="none" xmlns="http://www.w3.org/2000/svg">
<path fill-rule="evenodd" clip-rule="evenodd" d="M12 24C18.6274 24 24 18.6274 24 12C24 5.37258 18.6274 0 12 0C5.37258 0 0 5.37258 0 12C0 18.6274 5.37258 24 12 24Z" fill="#0976B4"/>
<path fill-rule="evenodd" clip-rule="evenodd" d="M7.32528 8.9029C8.15141 8.9029 8.82115 8.29214 8.82115 7.53789C8.82115 6.78298 8.15141 6.17142 7.32528 6.17142C6.49835 6.17142 5.82861 6.78298 5.82861 7.53789C5.82861 8.29214 6.49835 8.9029 7.32528 8.9029Z" fill="white"/>
<path fill-rule="evenodd" clip-rule="evenodd" d="M6.17139 17.6838H8.85539V9.94287H6.17139V17.6838Z" fill="white"/>
<path fill-rule="evenodd" clip-rule="evenodd" d="M12.6225 13.3784C12.6225 12.4907 13.0425 11.6226 14.0467 11.6226C15.051 11.6226 15.2979 12.4907 15.2979 13.3572V17.5849H17.9699V13.1844C17.9699 10.1271 16.1627 9.60001 15.051 9.60001C13.9402 9.60001 13.3275 9.97573 12.6225 10.8861V9.84399H9.94287V17.5849H12.6225V13.3784Z" fill="white"/>
</svg>
