<svg width="24" height="24" viewBox="0 0 24 24" fill="none" xmlns="http://www.w3.org/2000/svg">
<path fill-rule="evenodd" clip-rule="evenodd" d="M17.8231 3.05885C14.2312 0.102099 9.01055 0.349227 5.69347 3.67636L5.44874 3.92859L5.2525 4.14595C2.11453 7.73421 2.26718 13.1638 5.65096 16.5579L12.0978 23.0242L18.5446 16.5579L18.745 16.3505C22.0848 12.7848 22.0033 7.18817 18.5021 3.67636L18.2886 3.46902L18.0579 3.25896L17.8231 3.05885ZM7.31014 4.89421C9.94985 2.43289 13.9914 2.35172 16.7265 4.75125L16.9203 4.92733L17.0976 5.10013L17.283 5.29294L17.4597 5.49077C19.8744 8.29435 19.765 12.5011 17.1283 15.1458L12.0979 20.19L7.06731 15.1458L6.88371 14.9547C4.373 12.2433 4.36603 8.02399 6.89824 5.30647L7.11953 5.07855L7.31014 4.89421ZM12.0978 6.96392C13.8246 6.96392 15.2232 8.36678 15.2232 10.0958C15.2232 11.8248 13.8246 13.2277 12.0978 13.2277C10.371 13.2277 8.97236 11.8248 8.97236 10.0958C8.97236 8.36678 10.371 6.96392 12.0978 6.96392ZM10.9724 10.0958C10.9724 9.47 11.4769 8.96392 12.0978 8.96392C12.7187 8.96392 13.2232 9.47 13.2232 10.0958C13.2232 10.7216 12.7187 11.2277 12.0978 11.2277C11.4769 11.2277 10.9724 10.7216 10.9724 10.0958Z" fill="#B3B1B7"/>
</svg>
