<svg width="16" height="16" viewBox="0 0 16 16" fill="none" xmlns="http://www.w3.org/2000/svg">
<path fill-rule="evenodd" clip-rule="evenodd" d="M15.6667 3.37607C15.6667 2.06753 14.6258 1 13.3333 1C12.0408 1 11 2.06753 11 3.37607C11 3.5767 11.0245 3.77166 11.0706 3.95798L5.31591 6.90901C4.90477 6.23583 4.17204 5.78632 3.33333 5.78632C2.04084 5.78632 1 6.85385 1 8.16239C1 9.47093 2.04084 10.5385 3.33333 10.5385C4.1718 10.5385 4.90436 10.0892 5.31556 9.41634L11.0705 12.3671C11.0244 12.5533 11 12.7482 11 12.9487C11 14.2573 12.0408 15.3248 13.3333 15.3248C14.6258 15.3248 15.6667 14.2573 15.6667 12.9487C15.6667 11.6402 14.6258 10.5726 13.3333 10.5726L13.1731 10.5781C12.6201 10.6163 12.121 10.8502 11.741 11.2118L5.793 8.162L11.741 5.113C12.1574 5.50918 12.7167 5.75214 13.3333 5.75214C14.6258 5.75214 15.6667 4.68461 15.6667 3.37607ZM12.3333 12.9487C12.3333 12.3691 12.7849 11.906 13.3333 11.906C13.8818 11.906 14.3333 12.3691 14.3333 12.9487C14.3333 13.5283 13.8818 13.9915 13.3333 13.9915C12.7849 13.9915 12.3333 13.5283 12.3333 12.9487ZM3.33333 7.11966C2.78488 7.11966 2.33333 7.58278 2.33333 8.16239C2.33333 8.742 2.78488 9.20513 3.33333 9.20513C3.88179 9.20513 4.33333 8.742 4.33333 8.16239C4.33333 7.58278 3.88179 7.11966 3.33333 7.11966ZM12.3333 3.37607C12.3333 2.79646 12.7849 2.33333 13.3333 2.33333C13.8818 2.33333 14.3333 2.79646 14.3333 3.37607C14.3333 3.95568 13.8818 4.4188 13.3333 4.4188C12.7849 4.4188 12.3333 3.95568 12.3333 3.37607Z" fill="#8E8C95"/>
</svg>
