<svg width="20" height="20" viewBox="0 0 20 20" fill="none" xmlns="http://www.w3.org/2000/svg">
<path fill-rule="evenodd" clip-rule="evenodd" d="M9.83957 1L9.96323 1.00085C14.7882 1.067 18.6791 4.9989 18.6791 9.83957C18.6791 14.6428 14.8482 18.5512 10.0751 18.6761L9.83957 18.6791C4.95761 18.6791 1 14.7215 1 9.83957C1 4.95761 4.95761 1 9.83957 1ZM9.83957 14.2848C9.13366 14.2848 8.51716 14.3129 7.96932 14.3686C8.45367 15.9388 9.15028 16.9554 9.82188 17.0374L9.92961 17.0422C10.6189 17.0233 11.3437 15.9986 11.8426 14.3867C11.2537 14.3193 10.5916 14.2848 9.83957 14.2848ZM6.18161 14.7098L6.34498 14.6629L6.44872 14.9971C6.62761 15.5449 6.8363 16.0465 7.0716 16.4918C6.31201 16.1753 5.61821 15.7326 5.01645 15.1898L5.1641 15.1129C5.47876 14.9568 5.8128 14.8223 6.18161 14.7098ZM13.4644 14.6945L13.4203 14.8391C13.2404 15.4172 13.0281 15.9463 12.7864 16.4148C13.484 16.1012 14.1224 15.6805 14.6808 15.1734L14.6401 15.1523C14.3606 15.0096 14.0571 14.8829 13.7219 14.7734L13.4644 14.6945ZM2.68231 10.6576L5.72448 10.6577L5.75088 11.1585C5.79426 11.8208 5.87017 12.4601 5.97616 13.0672C5.3352 13.2403 4.77136 13.4669 4.24316 13.7463L4.11898 13.8141L3.91208 13.9335C3.25395 12.9825 2.81882 11.8653 2.68231 10.6576ZM16.9968 10.6576L14.0942 10.6577C14.06 11.5112 13.9725 12.3316 13.8368 13.1004C14.4109 13.259 14.9204 13.458 15.3843 13.695C15.5204 13.7644 15.6505 13.8359 15.7815 13.9126C16.3775 13.0447 16.7882 12.0401 16.9569 10.9554L16.9968 10.6576ZM7.36315 10.6573H12.4555L12.4294 11.1041C12.3875 11.6935 12.3173 12.2566 12.2244 12.7844C11.5181 12.6946 10.7296 12.6485 9.83957 12.6485C8.99515 12.6485 8.25406 12.6874 7.59117 12.7665C7.47656 12.111 7.39715 11.4025 7.36315 10.6573ZM3.99328 5.63093L3.9797 5.64958C3.28389 6.62096 2.82362 7.77252 2.68239 9.02077L5.72451 9.02067C5.76094 8.11193 5.8578 7.24068 6.00898 6.42933C5.35535 6.26553 4.78838 6.04932 4.27536 5.78412C4.17974 5.73468 4.08707 5.68428 3.99328 5.63093ZM7.62748 6.71312C8.28387 6.78494 9.01517 6.82144 9.83957 6.82144C10.7347 6.82144 11.5065 6.78137 12.188 6.70057L12.2591 7.10052C12.3567 7.70256 12.4247 8.34678 12.4555 9.02105H7.36319C7.4007 8.19959 7.4934 7.42273 7.62748 6.71312ZM15.6666 5.60407L15.5197 5.68921L15.4613 5.72148C14.9535 5.99725 14.416 6.22033 13.8023 6.39166C13.9578 7.21319 14.0571 8.0976 14.0941 9.02067L16.9968 9.02077C16.8643 7.8505 16.4515 6.7652 15.8271 5.8337L15.6666 5.60407ZM8.03448 5.10936C8.53221 3.59822 9.23094 2.64873 9.89631 2.63648L9.99661 2.64171C10.6379 2.71986 11.302 3.65017 11.7817 5.1005C11.2218 5.15692 10.5832 5.18507 9.83957 5.18507C9.16559 5.18507 8.56844 5.1598 8.03448 5.10936ZM7.07258 3.18719L7.03576 3.20243C6.33937 3.49698 5.69894 3.89793 5.13485 4.38489L5.02681 4.3305C5.4255 4.5366 5.87238 4.70798 6.39748 4.84182C6.55606 4.33281 6.73954 3.86182 6.94598 3.4367L7.07258 3.18719ZM12.8292 3.34845L12.7868 3.26496L13.0548 3.39201C13.5847 3.65675 14.0774 3.98486 14.5229 4.36626C14.1819 4.53947 13.8189 4.6851 13.4084 4.8021C13.2419 4.27303 13.048 3.78546 12.8292 3.34845Z" fill="#B3B1B7"/>
</svg>
